<svg xmlns="http://www.w3.org/2000/svg" viewBox="0 0 800 256" width="800" height="256" role="img" aria-labelledby="title">
  <title id="title">Счёты — знак с надписью</title>
  <!-- Набросок: надпись — живой текст системным шрифтом, имя рабочее. В готовом знаке буквы строятся контурами. -->
  <g id="symbol" fill="#111111">
    <rect x="20" y="28" width="16" height="200" rx="8"/>
    <rect x="220" y="28" width="16" height="200" rx="8"/>
    <rect x="36" y="59" width="184" height="10"/>
    <rect x="36" y="123" width="184" height="10"/>
    <rect x="36" y="187" width="184" height="10"/>
    <ellipse cx="57" cy="64" rx="17" ry="25"/>
    <ellipse cx="91" cy="64" rx="17" ry="25"/>
    <ellipse cx="199" cy="64" rx="17" ry="25"/>
    <ellipse cx="57" cy="128" rx="17" ry="25"/>
    <ellipse cx="165" cy="128" rx="17" ry="25"/>
    <ellipse cx="199" cy="128" rx="17" ry="25"/>
    <ellipse cx="131" cy="192" rx="17" ry="25"/>
    <ellipse cx="165" cy="192" rx="17" ry="25"/>
    <ellipse cx="199" cy="192" rx="17" ry="25"/>
  </g>
  <text id="wordmark" x="292" y="166" fill="#111111" font-family="Segoe UI, Roboto, sans-serif" font-weight="600" font-size="112">Финансы</text>
</svg>
