<?xml version="1.0" encoding="UTF-8" standalone="no"?>
<!-- Знак на экране «О программе» в тёмной теме: неоновый рубль без плитки — фоном служит атмосфера экрана.
     Тот же знак, что на значке и заставке; область свечения задана холстом, как в Resources/AppIcon/appiconfg.svg.
     Для светлой темы — дневной рубль, about_mark_light.svg: неон на светлом гаснет. -->
<svg width="220" height="220" viewBox="0 0 256 256" version="1.1" xmlns="http://www.w3.org/2000/svg">
    <defs>
        <linearGradient id="glass" x1="68" y1="52" x2="160" y2="204" gradientUnits="userSpaceOnUse">
            <stop offset="0" stop-color="#1D6B55" stop-opacity="0.7" />
            <stop offset="1" stop-color="#0A3328" stop-opacity="0.6" />
        </linearGradient>
        <filter id="glow" filterUnits="userSpaceOnUse" x="0" y="0" width="256" height="256">
            <feGaussianBlur stdDeviation="8" />
        </filter>
        <clipPath id="in">
            <path fill-rule="evenodd" clip-rule="evenodd" d="M88 52 H146 A42 42 0 0 1 146 136 H114 V154 H152 V176 H114 V204 H88 V176 H68 V154 H88 Z M114 76 H146 A18 18 0 0 1 146 112 H114 Z" />
        </clipPath>
    </defs>
    <path filter="url(#glow)" fill="none" stroke="#2CFFA8" stroke-width="14" stroke-linejoin="round" opacity="0.55" d="M88 52 H146 A42 42 0 0 1 146 136 H114 V154 H152 V176 H114 V204 H88 V176 H68 V154 H88 Z M114 76 H146 A18 18 0 0 1 146 112 H114 Z" />
    <path fill="url(#glass)" fill-rule="evenodd" d="M88 52 H146 A42 42 0 0 1 146 136 H114 V154 H152 V176 H114 V204 H88 V176 H68 V154 H88 Z M114 76 H146 A18 18 0 0 1 146 112 H114 Z" />
    <path clip-path="url(#in)" fill="#FFFFFF" opacity="0.18" d="M60 40 H120 L60 140 Z" />
    <path fill="none" stroke="#3CFFB0" stroke-width="4" stroke-linejoin="round" d="M88 52 H146 A42 42 0 0 1 146 136 H114 V154 H152 V176 H114 V204 H88 V176 H68 V154 H88 Z M114 76 H146 A18 18 0 0 1 146 112 H114 Z" />
    <path fill="none" stroke="#E6FFF5" stroke-width="1.5" stroke-linejoin="round" d="M88 52 H146 A42 42 0 0 1 146 136 H114 V154 H152 V176 H114 V204 H88 V176 H68 V154 H88 Z M114 76 H146 A18 18 0 0 1 146 112 H114 Z" />
</svg>
